<?xml version="1.0" standalone="no"?>
<!DOCTYPE svg PUBLIC "-//W3C//DTD SVG 20010904//EN"
 "http://www.w3.org/TR/2001/REC-SVG-20010904/DTD/svg10.dtd">
<svg version="1.0" xmlns="http://www.w3.org/2000/svg"
 width="500.000000pt" height="500.000000pt" viewBox="0 0 500.000000 500.000000"
 preserveAspectRatio="xMidYMid meet">

<g transform="translate(0.000000,500.000000) scale(0.100000,-0.100000)"
fill="#000000" stroke="none">
<path d="M2370 4202 c-31 -25 -157 -118 -240 -177 -49 -35 -287 -209 -505
-369 -115 -85 -277 -203 -359 -263 -82 -59 -160 -117 -174 -129 l-25 -21 2
-199 c4 -370 20 -867 29 -876 5 -5 14 -3 21 6 10 12 10 101 2 433 -6 230 -13
458 -15 507 -4 89 -4 89 28 118 17 16 117 91 221 167 105 76 249 181 320 234
72 53 148 109 170 125 178 129 296 216 330 241 22 17 65 48 95 70 30 22 77 56
103 77 56 43 53 43 164 -40 37 -28 106 -77 153 -109 47 -33 119 -83 160 -113
41 -29 125 -87 185 -129 179 -124 484 -338 585 -410 15 -11 60 -42 99 -69 39
-26 75 -53 80 -60 5 -6 15 -231 21 -521 8 -306 16 -515 22 -522 28 -34 30 8
24 366 -3 201 -9 440 -12 530 -7 185 -2 173 -100 239 -27 18 -108 75 -179 125
-72 51 -156 110 -188 132 -31 22 -81 57 -110 78 -51 37 -69 49 -196 138 -75
52 -209 147 -266 187 -234 168 -376 262 -394 262 -9 0 -32 -13 -51 -28z"/>
<path d="M2514 3598 c-29 -14 -44 -50 -44 -107 0 -84 53 -107 97 -42 33 49 28
127 -11 153 -14 9 -16 9 -42 -4z"/>
<path d="M2289 3579 c-14 -28 -6 -101 15 -134 19 -30 60 -42 81 -25 20 16 20
102 0 139 -23 46 -76 56 -96 20z"/>
<path d="M2643 3430 c-58 -35 -66 -142 -10 -148 53 -6 101 81 74 136 -16 34
-26 36 -64 12z"/>
<path d="M2172 3428 c-33 -33 4 -142 53 -154 39 -10 58 12 52 62 -8 77 -68
129 -105 92z"/>
<path d="M2385 3343 c-72 -37 -125 -134 -125 -227 0 -65 18 -75 82 -45 67 31
136 32 206 1 72 -31 86 -20 79 58 -8 93 -58 174 -129 211 -45 23 -73 23 -113
2z"/>
<path d="M1328 2745 c-63 -42 -102 -188 -114 -421 l-6 -132 52 -7 c28 -4 56
-3 61 2 5 5 12 38 15 73 8 93 6 90 54 78 l42 -11 -7 -71 c-3 -39 -7 -80 -8
-91 -2 -18 4 -20 57 -20 l60 0 28 135 c29 143 36 285 18 352 -31 112 -165 172
-252 113z m109 -137 c51 -57 27 -108 -52 -108 -49 0 -51 4 -35 59 10 37 37 71
55 71 6 0 21 -10 32 -22z"/>
<path d="M3416 2695 c-89 -31 -126 -83 -134 -183 -9 -130 32 -172 175 -180 87
-5 103 -15 83 -52 -13 -24 -66 -34 -137 -26 l-56 6 7 -42 c4 -24 10 -62 13
-86 7 -52 26 -62 111 -62 122 0 217 76 246 197 16 65 16 72 0 111 -27 69 -68
89 -206 99 -80 6 -103 23 -71 54 13 14 45 24 99 33 l79 12 -2 33 c0 18 -4 48
-8 67 l-6 34 -77 0 c-42 -1 -95 -7 -116 -15z"/>
<path d="M1943 2643 c-21 -25 -50 -60 -64 -76 l-26 -30 -23 45 c-12 25 -32 58
-44 72 -20 26 -23 27 -86 19 l-65 -8 0 -288 c0 -245 2 -289 15 -297 21 -14 84
-12 98 2 8 8 12 58 12 160 0 81 4 148 8 148 4 0 20 -25 35 -56 24 -49 31 -55
54 -52 20 2 35 17 63 62 20 33 41 61 48 64 9 3 12 -38 12 -166 0 -167 0 -170
23 -176 37 -10 82 -7 100 7 14 11 15 30 7 197 -5 102 -9 233 -10 293 0 106 0
108 -26 117 -14 6 -41 10 -59 10 -28 0 -40 -8 -72 -47z"/>
<path d="M2193 2672 l-33 -3 0 -309 0 -309 43 -6 c69 -11 90 -4 99 30 9 33 12
570 3 584 -6 10 -67 17 -112 13z"/>
<path d="M2899 2656 c-82 -57 -124 -164 -122 -311 1 -101 15 -150 56 -197 101
-115 275 -118 359 -6 52 71 63 107 63 213 -1 83 -5 109 -25 155 -52 118 -109
160 -225 167 -62 4 -74 2 -106 -21z m145 -148 c41 -18 59 -56 63 -133 5 -87
-15 -135 -64 -149 -125 -35 -189 171 -83 267 34 30 47 32 84 15z"/>
<path d="M2525 2658 c-52 -19 -110 -75 -141 -135 -26 -53 -29 -67 -29 -158 0
-95 2 -103 33 -157 34 -60 82 -107 134 -134 41 -21 115 -14 157 15 53 38 66
74 66 181 0 132 2 130 -92 130 -115 0 -123 -4 -123 -54 0 -71 8 -85 49 -88 28
-2 36 -7 36 -23 0 -29 -53 -32 -88 -5 -118 93 -32 279 129 280 49 0 54 8 54
85 l0 53 -44 11 c-54 13 -101 13 -141 -1z"/>
<path d="M3843 2090 c-81 -49 -88 -160 -19 -293 41 -79 53 -155 36 -229 -20
-84 -35 -106 -80 -118 -22 -6 -40 -17 -40 -25 0 -7 -3 -20 -6 -29 -9 -23 37
-21 84 3 49 25 79 67 97 138 27 104 19 160 -42 297 -46 103 -49 168 -9 202 15
13 36 24 47 24 10 0 19 4 19 9 0 5 3 16 6 25 9 23 -53 21 -93 -4z"/>
<path d="M1093 1734 c7 -374 10 -394 50 -378 16 6 17 20 11 140 -7 133 -7 134
15 134 12 0 39 9 59 19 90 46 127 245 68 360 -23 43 -77 72 -148 79 l-61 5 6
-359z m135 261 c29 -27 45 -96 36 -150 -11 -68 -44 -135 -70 -141 -52 -13 -54
-7 -54 159 0 85 3 157 6 160 12 11 58 -4 82 -28z"/>
<path d="M3236 1993 c-4 -15 -21 -452 -19 -490 1 -30 4 -33 27 -33 26 0 36 28
36 102 0 36 2 39 16 27 9 -7 34 -40 56 -72 40 -59 61 -68 81 -36 8 13 2 27
-29 65 -50 61 -87 114 -83 118 2 2 25 13 51 24 112 49 120 184 17 277 -35 31
-45 35 -93 35 -43 0 -56 -4 -60 -17z m115 -67 c78 -68 64 -153 -29 -184 -43
-15 -46 -6 -37 113 8 106 17 115 66 71z"/>
<path d="M3620 1994 c-25 -7 -57 -13 -72 -13 -15 -1 -29 -4 -31 -8 -3 -5 0
-53 5 -108 5 -55 12 -161 16 -235 l7 -134 45 -9 c25 -4 64 -5 88 -2 39 6 42 9
42 36 0 29 0 29 -60 29 l-60 0 0 85 0 85 36 0 c33 0 35 2 32 28 -3 23 -8 27
-40 30 -36 3 -37 5 -43 50 -14 101 -16 96 45 106 30 5 57 10 58 12 6 5 -9 64
-16 63 -4 -1 -27 -7 -52 -15z"/>
<path d="M1414 1988 c-4 -6 -11 -104 -15 -217 -4 -113 -9 -226 -11 -251 -3
-42 -1 -45 23 -48 30 -4 39 15 39 86 0 23 3 42 8 42 7 0 27 -28 83 -112 l26
-39 23 19 c28 23 27 26 -45 117 -30 38 -55 73 -55 77 0 5 8 8 18 8 28 0 81 37
102 72 44 72 11 189 -66 234 -44 26 -117 33 -130 12z m96 -63 c36 -19 60 -62
60 -109 0 -26 -7 -40 -31 -60 -17 -14 -41 -26 -55 -26 -24 0 -24 1 -24 105 0
67 4 105 10 105 6 0 24 -7 40 -15z"/>
<path d="M2401 1982 l-73 -15 6 -36 c3 -20 10 -124 16 -231 6 -107 13 -201 15
-208 4 -9 27 -12 87 -10 82 3 83 3 86 31 3 26 2 27 -50 27 -30 0 -59 5 -66 12
-7 7 -12 41 -12 84 l0 71 40 7 c59 9 52 52 -10 58 l-35 3 -7 70 c-4 38 -5 71
-4 73 2 1 27 5 55 9 58 7 66 13 57 49 -7 27 -5 27 -105 6z"/>
<path d="M1780 1967 c-60 -30 -96 -141 -88 -274 6 -95 24 -134 81 -170 88 -56
196 -23 232 71 24 63 17 204 -12 261 -28 53 -81 103 -124 115 -44 13 -59 12
-89 -3z m118 -82 c79 -66 93 -251 24 -305 -38 -31 -97 -22 -134 19 -54 60 -59
165 -14 274 15 34 20 37 55 37 27 0 49 -8 69 -25z"/>
<path d="M2891 1955 c-44 -38 -66 -111 -65 -225 0 -116 16 -158 73 -196 59
-38 125 -43 170 -12 63 43 76 70 80 170 4 110 -10 164 -56 218 -64 75 -144 93
-202 45z m136 -61 c40 -26 61 -72 68 -150 9 -89 2 -118 -32 -150 -52 -48 -139
-24 -167 46 -32 80 -12 243 32 270 21 12 68 5 99 -16z"/>
<path d="M2050 1921 c0 -28 3 -30 43 -33 l42 -3 -3 -182 -2 -183 23 0 c22 0
25 6 31 53 3 28 6 107 6 175 l0 122 40 0 c38 0 40 2 40 30 0 33 -4 34 -142 45
l-78 6 0 -30z"/>
<path d="M2570 1927 c0 -26 16 -37 57 -37 l25 0 -4 -180 c-3 -179 -3 -181 19
-186 12 -3 27 -3 32 1 7 4 11 69 11 181 l0 175 35 -7 c34 -6 35 -5 35 24 0 17
-3 33 -7 35 -5 2 -52 8 -105 11 l-98 7 0 -24z"/>
<path d="M3852 1125 c4 -151 2 -217 -6 -223 -6 -5 -100 -4 -209 1 -202 9 -226
6 -214 -26 4 -11 45 -16 189 -22 252 -10 245 -11 268 10 19 17 20 30 20 185 0
92 -3 195 -6 229 -6 52 -10 61 -27 61 -19 0 -19 -6 -15 -215z"/>
<path d="M1110 1286 c-9 -12 -10 -62 -4 -206 8 -220 13 -234 80 -234 73 0 389
16 397 21 4 2 7 13 7 24 0 18 -8 19 -107 19 -60 -1 -153 -5 -208 -10 -68 -6
-104 -5 -112 2 -10 8 -13 58 -13 193 0 142 -3 185 -14 194 -10 9 -16 8 -26 -3z"/>
<path d="M2432 1023 c-16 -30 -62 -200 -62 -228 0 -39 24 -26 30 16 5 36 23
45 65 35 16 -4 25 -16 29 -41 10 -49 36 -47 35 3 -1 46 -60 225 -76 230 -6 2
-16 -5 -21 -15z m38 -115 c0 -21 -5 -28 -20 -28 -21 0 -26 23 -13 69 6 23 7
23 20 6 7 -11 13 -31 13 -47z"/>
<path d="M1779 1008 c-10 -19 -6 -209 6 -227 15 -25 25 -8 25 43 l0 53 41 7
c50 8 48 30 -3 34 -27 2 -37 9 -41 24 -9 32 2 41 39 35 19 -3 36 -1 39 4 4 5
10 9 16 9 13 0 11 -94 -3 -108 -9 -9 -9 -15 0 -24 7 -7 12 -23 12 -37 0 -33
14 -55 31 -49 9 3 13 18 10 46 -3 53 12 54 38 3 38 -74 75 -61 40 14 -16 35
-19 49 -10 58 6 6 11 30 11 52 0 67 -22 80 -142 81 -86 0 -101 -2 -109 -18z
m205 -34 c20 -20 20 -38 0 -59 -25 -24 -39 -13 -42 33 -3 46 13 56 42 26z"/>
<path d="M2064 1015 c-4 -9 -4 -54 -2 -101 5 -97 28 -141 69 -136 48 5 71 71
61 172 -6 51 -11 65 -25 68 -17 3 -18 -3 -11 -80 7 -87 -3 -128 -30 -128 -20
0 -27 25 -33 123 -6 85 -17 115 -29 82z"/>
<path d="M2211 1022 c-19 -13 -5 -32 24 -32 24 0 24 -1 27 -107 4 -140 21
-142 28 -3 l5 105 27 0 c26 -1 46 19 30 29 -17 10 -128 16 -141 8z"/>
<path d="M2566 1008 c-3 -13 -6 -69 -6 -125 l0 -103 39 0 c22 0 43 5 46 10 6
9 1 12 -35 14 -12 1 -15 20 -15 110 0 72 -4 110 -11 113 -6 2 -14 -6 -18 -19z"/>
<path d="M2926 914 c-4 -64 -5 -118 -2 -121 15 -15 26 15 26 70 0 44 3 58 10
47 5 -8 10 -35 10 -60 1 -83 40 -96 56 -18 l8 43 4 -47 c2 -34 7 -48 18 -48
11 0 14 23 14 126 0 124 0 125 -22 122 -23 -3 -27 -12 -44 -106 -6 -28 -24
-19 -24 11 0 39 -21 97 -34 97 -10 0 -15 -30 -20 -116z"/>
<path d="M3146 1011 c-38 -26 -55 -57 -56 -104 0 -76 37 -127 93 -127 38 0 54
31 49 93 -3 26 -62 24 -62 -3 0 -11 6 -20 14 -20 19 0 27 -13 17 -29 -14 -22
-52 -2 -67 35 -16 37 -11 97 10 112 6 5 25 14 41 19 17 5 30 16 30 24 0 22
-37 22 -69 0z"/>
<path d="M2737 913 c-30 -8 -13 -28 28 -31 43 -4 69 13 45 28 -16 10 -42 11
-73 3z"/>
</g>
</svg>
